<svg xmlns="http://www.w3.org/2000/svg" xmlns:xlink="http://www.w3.org/1999/xlink" width="20" height="20" viewBox="0 0 20 20">
  <defs>
    <path id="a" d="M10 20c-4.97 0-9-3.938-9-8.795C1 6.347 5.03 2.41 10 2.41s9 3.937 9 8.795C19 16.062 14.97 20 10 20zm0-1.446c4.153 0 7.52-3.29 7.52-7.35 0-4.058-3.367-7.349-7.52-7.349s-7.52 3.29-7.52 7.35c0 4.059 3.367 7.35 7.52 7.35zm.863-16.867V2.77a.853.853 0 0 1-.863.843.853.853 0 0 1-.863-.843V1.687h-.123A.853.853 0 0 1 8.15.843c0-.465.386-.843.863-.843h1.972c.477 0 .863.378.863.843a.853.853 0 0 1-.863.844h-.123zm-.003 9.584a.825.825 0 0 1-.113.42.85.85 0 0 1-.318.312l-3.38 1.907a.875.875 0 0 1-1.18-.309.825.825 0 0 1-.002-.84.85.85 0 0 1 .319-.312l2.951-1.665V5.663c0-.466.386-.844.863-.844s.863.378.863.844v5.542c0 .022 0 .044-.003.066z"/>
  </defs>
  <use xlink:href="#a"/>
</svg>
